<svg width="180" height="180" viewBox="0 0 180 180" fill="none" xmlns="http://www.w3.org/2000/svg">
  <defs>
    <linearGradient id="bg" x1="18" y1="16" x2="162" y2="166" gradientUnits="userSpaceOnUse">
      <stop stop-color="#0A101B"/>
      <stop offset="1" stop-color="#03060E"/>
    </linearGradient>
    <radialGradient id="wash" cx="0" cy="0" r="1" gradientUnits="userSpaceOnUse" gradientTransform="translate(90 90) rotate(90) scale(78)">
      <stop stop-color="#1F3550"/>
      <stop offset="1" stop-color="#1F3550" stop-opacity="0"/>
    </radialGradient>
    <linearGradient id="seg1" x1="58" y1="56" x2="121" y2="113" gradientUnits="userSpaceOnUse">
      <stop stop-color="#65F3D8"/>
      <stop offset="1" stop-color="#2BC5C2"/>
    </linearGradient>
    <linearGradient id="seg2" x1="119" y1="58" x2="74" y2="120" gradientUnits="userSpaceOnUse">
      <stop stop-color="#83A7FF"/>
      <stop offset="1" stop-color="#5F72FF"/>
    </linearGradient>
    <linearGradient id="seg3" x1="90" y1="132" x2="71" y2="64" gradientUnits="userSpaceOnUse">
      <stop stop-color="#FFB76F"/>
      <stop offset="1" stop-color="#FF7E5E"/>
    </linearGradient>
  </defs>

  <rect width="180" height="180" rx="38" fill="url(#bg)"/>
  <rect x="1" y="1" width="178" height="178" rx="37" stroke="#FFFFFF" stroke-opacity="0.08"/>
  <circle cx="90" cy="90" r="78" fill="url(#wash)"/>

  <g opacity="0.15">
    <path d="M38 116C52 88 75 67 110 54" stroke="#74C7FF" stroke-width="1.2"/>
    <path d="M58 40C84 52 107 74 123 110" stroke="#64E9D0" stroke-width="1.2"/>
    <path d="M65 132C86 135 109 125 129 104" stroke="#FFAA70" stroke-width="1.2"/>
  </g>

  <path d="M90 46C104 46 116 53 123 66C129 77 128 88 120 100L106 94C111 86 111 79 107 72C103 65 97 62 90 62C78 62 69 71 69 83C69 88 71 93 75 97L64 108C55 100 50 91 50 80C50 61 67 46 90 46Z" fill="url(#seg1)"/>
  <path d="M126 68C135 77 139 88 136 100C132 112 124 121 112 126L105 112C113 108 118 102 120 94C121 87 119 80 113 74C105 66 93 66 84 74C80 78 78 82 77 87L61 84C63 72 68 64 77 57C93 45 113 49 126 68Z" fill="url(#seg2)"/>
  <path d="M112 126C101 133 89 136 77 133C65 130 56 123 50 111L65 104C69 112 75 116 83 118C91 119 98 117 104 111C112 103 112 91 104 83C100 79 96 77 90 76L93 60C105 61 114 66 122 75C136 91 132 113 112 126Z" fill="url(#seg3)"/>
  <circle cx="90" cy="90" r="10" fill="#EDF5FF"/>
  <circle cx="90" cy="90" r="4.5" fill="#08111A"/>
</svg>
